<svg width="120" height="120" viewBox="0 0 120 120" fill="none" xmlns="http://www.w3.org/2000/svg">
<path d="M0 36C0 16.1178 16.1178 0 36 0H84C103.882 0 120 16.1178 120 36V84C120 103.882 103.882 120 84 120H36C16.1178 120 0 103.882 0 84V36Z" fill="#5B6FA9"/>
<path d="M40.894 31.582C46.9527 31.582 51.4726 32.8131 54.4546 35.2744C55.9343 36.4536 57.0521 37.8192 57.8091 39.3711C58.3145 40.0582 58.9738 41.2168 59.396 42.4033C59.9348 43.9178 70.5728 75.1816 70.5728 75.1816L81.7651 34.418H84.8813L95.6919 75.1816L105.804 36.7842H101.352V34.418H113.435V36.7842H108.984L93.0845 94.418H89.9048L79.1577 54.418L67.9653 94.418H64.7856L60.0181 77.1367C59.2276 79.6608 57.8705 81.634 55.9458 83.0566C52.7272 85.5179 48.5385 86.749 43.3794 86.749H12.5649V84.5479H17.5347V33.7832H12.5649V31.582H40.894ZM31.0249 84.5479H38.1255C44.3258 84.5477 47.4262 80.1932 47.4263 71.4844C47.4263 67.9817 46.8103 65.0943 45.5796 62.8223C44.3489 60.503 42.1954 59.3428 39.1187 59.3428H31.0249V84.5479ZM53.8149 54.6533C52.1911 55.5928 50.2047 56.2824 47.8521 56.7158C50.6765 57.0481 53.0803 57.8716 55.0649 59.1836L53.8149 54.6533ZM31.0249 56.7158H37.4155C39.7346 56.7157 41.6519 55.7222 43.1665 53.7344C44.7285 51.7464 45.5092 49.0954 45.5093 45.7822C45.5093 41.9011 44.7044 38.9425 43.0952 36.9072C41.5332 34.8246 39.4975 33.7832 36.9888 33.7832H31.0249V56.7158Z" fill="#68FFA4"/>
</svg>
